<?xml version="1.0" encoding="UTF-8"?>
<svg id="Layer_2" data-name="Layer 2" xmlns="http://www.w3.org/2000/svg" viewBox="0 0 499.12 594.32">
  <defs>
    <style>
      .cls-1 {
        fill: #15293f;
      }

      .cls-2 {
        fill: #fff;
      }

      .cls-3 {
        fill: #c52027;
      }
    </style>
  </defs>
  <g id="Layer_1-2" data-name="Layer 1">
    <path class="cls-3" d="M249.54,2.95c3.91-3.94,10.28-3.94,14.19,0l167.37,168.56c6.27,6.31,1.8,17.05-7.1,17.05h-32.37c-5.52,0-10,4.48-10,10v73.19s-.03.06-.06.06-.06.03-.06.06c-2.92,66.18-57.71,118.94-124.88,118.94s-121.95-52.76-124.87-118.94c0-.03-.03-.06-.06-.06-.04,0-.06-.03-.06-.06v-73.19c0-5.52-4.48-10-10-10h-32.37c-8.89,0-13.36-10.74-7.1-17.05L249.54,2.95Z"/>
    <path class="cls-1" d="M316.45,274.81h-.1c-1.8,31.78-27.93,57-59.9,57s-58.1-25.22-59.9-57h-.1v-114h120v114Z"/>
    <path class="cls-2" d="M348.45,120.81c4.42,0,8,3.58,8,8v34c0,4.42-3.58,8-8,8h-59c-5.52,0-10,4.48-10,10v106c0,4.42-3.58,8-8,8h-30c-4.42,0-8-3.58-8-8v-106c0-5.52-4.48-10-10-10h-59c-4.42,0-8-3.58-8-8v-34c0-4.42,3.58-8,8-8h184Z"/>
    <path class="cls-1" d="M0,449.68v-17.38h76.12v17.38h-27.5v73.12h-21.12v-73.12H0ZM167.5,477.56c0,29.88-18.75,46.5-43,46.5s-43-16.75-43-46.5,18.62-46.5,43-46.5,43,16.62,43,46.5ZM145.75,477.56c0-18-8-27.75-21.25-27.75s-21.25,9.75-21.25,27.75,8,27.75,21.25,27.75,21.25-9.75,21.25-27.75ZM180.12,522.81v-90.5h37c20.38,0,32.88,12.75,32.88,31.12s-12.75,31-33.5,31h-15.12v28.38h-21.25ZM201.38,477.56h11.25c10,0,15.38-5.62,15.38-14.12s-5.38-13.88-15.38-13.88h-11.25v28ZM309.62,459.18c-.5-6.62-5.38-10.5-14.12-10.5s-13,3.75-13.12,8.88c-.12,5.62,5.38,8.38,13.5,10.12l7.88,1.88c17.38,3.88,27.5,12.5,27.62,27-.12,17.12-13.38,27.5-35.88,27.5s-37.12-10.25-37.5-31h20.5c.5,8.75,7,13.25,16.75,13.25,9,0,14.38-4,14.5-9.75-.12-5.25-4.75-8-14.75-10.25l-9.5-2.25c-15.62-3.62-25.12-11.38-25.12-25-.12-16.75,14.75-28,35.25-28s34.25,11.38,34.5,28.12h-20.5ZM427.25,477.56c0,29.88-18.75,46.5-43,46.5s-43-16.75-43-46.5,18.62-46.5,43-46.5,43,16.62,43,46.5ZM405.5,477.56c0-18-8-27.75-21.25-27.75s-21.25,9.75-21.25,27.75,8,27.75,21.25,27.75,21.25-9.75,21.25-27.75ZM439.88,522.81v-90.5h21.25v73.12h38v17.38h-59.25Z"/>
    <path class="cls-1" d="M10.81,568.65v-3.12h21.33v3.12h-8.87v25.16h-3.55v-25.16h-8.91ZM77.56,579.67c0,8.95-5.27,14.53-12.5,14.53s-12.5-5.59-12.5-14.53,5.23-14.53,12.5-14.53,12.5,5.59,12.5,14.53ZM74.16,579.67c0-7.3-3.98-11.25-9.1-11.25s-9.1,3.95-9.1,11.25,3.98,11.25,9.1,11.25,9.1-3.95,9.1-11.25ZM100.72,593.81v-28.28h9.61c6.64,0,9.65,3.95,9.65,8.98s-3.01,9.02-9.61,9.02h-6.13v10.27h-3.52ZM104.23,580.41h5.98c4.49,0,6.29-2.54,6.29-5.9s-1.8-5.86-6.33-5.86h-5.94v11.76ZM186.37,572.64c-.31-2.77-2.85-4.38-6.25-4.38-3.75,0-6.21,1.95-6.21,4.65,0,2.97,3.32,4.06,5.47,4.61l2.81.78c3.05.78,8.01,2.54,8.01,7.81,0,4.61-3.71,8.2-10.27,8.2-6.09,0-9.88-3.16-10.2-7.85h3.59c.31,3.16,3.24,4.65,6.6,4.65,3.91,0,6.84-1.99,6.84-5.08,0-2.73-2.62-3.79-5.59-4.65l-3.48-.94c-4.45-1.29-7.19-3.55-7.19-7.38,0-4.77,4.26-7.93,9.73-7.93s9.41,3.2,9.57,7.5h-3.44ZM237.14,579.67c0,8.95-5.27,14.53-12.5,14.53s-12.5-5.59-12.5-14.53,5.23-14.53,12.5-14.53,12.5,5.59,12.5,14.53ZM233.74,579.67c0-7.3-3.98-11.25-9.1-11.25s-9.1,3.95-9.1,11.25,3.98,11.25,9.1,11.25,9.1-3.95,9.1-11.25ZM260.3,593.81v-28.28h3.52v25.16h13.13v3.12h-16.64ZM318.14,565.53h3.52v18.71c0,5.82-4.34,10.08-11.02,10.08s-11.02-4.26-11.02-10.08v-18.71h3.52v18.44c0,4.1,2.85,7.07,7.5,7.07s7.5-2.97,7.5-7.07v-18.44ZM344.34,568.65v-3.12h21.33v3.12h-8.87v25.16h-3.55v-25.16h-8.91ZM391.88,565.53v28.28h-3.52v-28.28h3.52ZM440.03,579.67c0,8.95-5.27,14.53-12.5,14.53s-12.5-5.59-12.5-14.53,5.23-14.53,12.5-14.53,12.5,5.59,12.5,14.53ZM436.63,579.67c0-7.3-3.98-11.25-9.1-11.25s-9.1,3.95-9.1,11.25,3.98,11.25,9.1,11.25,9.1-3.95,9.1-11.25ZM485.65,565.53v28.28h-3.36l-15.31-22.03h-.27v22.03h-3.52v-28.28h3.4l15.31,22.07h.27v-22.07h3.48Z"/>
  </g>
</svg>