<?xml version="1.0" encoding="UTF-8"?>
<svg id="Layer_2" data-name="Layer 2" xmlns="http://www.w3.org/2000/svg" viewBox="0 0 354.78 390.81">
  <defs>
    <style>
      .cls-1 {
        fill: #15293f;
      }

      .cls-2 {
        fill: #fff;
      }

      .cls-3 {
        fill: #c52027;
      }
    </style>
  </defs>
  <g id="Layer_1-2" data-name="Layer 1">
    <path class="cls-3" d="M170.29,2.95c3.91-3.94,10.28-3.94,14.19,0l167.37,168.56c6.27,6.31,1.8,17.05-7.1,17.05h-32.37c-5.52,0-10,4.48-10,10v73.19s-.03.06-.06.06-.06.03-.06.06c-2.92,66.18-57.71,118.94-124.88,118.94s-121.95-52.76-124.87-118.94c0-.03-.03-.06-.06-.06-.04,0-.06-.03-.06-.06v-73.19c0-5.52-4.48-10-10-10H10.02c-8.89,0-13.36-10.74-7.1-17.05L170.29,2.95Z"/>
    <path class="cls-1" d="M237.2,274.81h-.1c-1.8,31.78-27.93,57-59.9,57s-58.1-25.22-59.9-57h-.1v-114h120v114Z"/>
    <path class="cls-2" d="M269.2,120.81c4.42,0,8,3.58,8,8v34c0,4.42-3.58,8-8,8h-59c-5.52,0-10,4.48-10,10v106c0,4.42-3.58,8-8,8h-30c-4.42,0-8-3.58-8-8v-106c0-5.52-4.48-10-10-10h-59c-4.42,0-8-3.58-8-8v-34c0-4.42,3.58-8,8-8h184Z"/>
  </g>
</svg>