<?xml version="1.0" encoding="UTF-8"?>
<svg id="Layer_2" data-name="Layer 2" xmlns="http://www.w3.org/2000/svg" viewBox="0 0 773.88 254.19">
  <defs>
    <style>
      .cls-1 {
        fill: #15293f;
      }

      .cls-2 {
        fill: #fff;
      }

      .cls-3 {
        fill: #c52027;
      }
    </style>
  </defs>
  <g id="Layer_1-2" data-name="Layer 1">
    <path class="cls-3" d="M110.76,1.92c2.54-2.56,6.69-2.56,9.23,0l108.86,109.63c4.07,4.1,1.17,11.09-4.62,11.09h-21.05c-3.59,0-6.5,2.91-6.5,6.5v47.6s-.02.04-.04.04c-.02,0-.04.02-.04.04-1.9,43.04-37.54,77.36-81.22,77.36-43.68,0-79.32-34.32-81.22-77.36,0-.02-.02-.04-.04-.04-.02,0-.04-.02-.04-.04v-47.6c0-3.59-2.91-6.5-6.5-6.5H6.52c-5.78,0-8.69-6.98-4.62-11.09L110.76,1.92Z"/>
    <path class="cls-1" d="M154.28,178.74h-.07c-1.17,20.67-18.16,37.07-38.96,37.07s-37.79-16.4-38.96-37.07h-.07v-74.15h78.05v74.15Z"/>
    <path class="cls-2" d="M175.09,78.58c2.87,0,5.2,2.33,5.2,5.2v22.11c0,2.87-2.33,5.2-5.2,5.2h-38.37c-3.59,0-6.5,2.91-6.5,6.5v68.94c0,2.87-2.33,5.2-5.2,5.2h-19.51c-2.87,0-5.2-2.33-5.2-5.2v-68.94c0-3.59-2.91-6.5-6.5-6.5h-38.38c-2.87,0-5.2-2.33-5.2-5.2v-22.11c0-2.87,2.33-5.2,5.2-5.2h119.68Z"/>
    <path class="cls-1" d="M274.75,99.68v-17.38h76.12v17.38h-27.5v73.12h-21.12v-73.12h-27.5ZM442.25,127.56c0,29.88-18.75,46.5-43,46.5s-43-16.75-43-46.5,18.62-46.5,43-46.5,43,16.62,43,46.5ZM420.5,127.56c0-18-8-27.75-21.25-27.75s-21.25,9.75-21.25,27.75,8,27.75,21.25,27.75,21.25-9.75,21.25-27.75ZM454.88,172.81v-90.5h37c20.38,0,32.88,12.75,32.88,31.12s-12.75,31-33.5,31h-15.12v28.38h-21.25ZM476.13,127.56h11.25c10,0,15.38-5.62,15.38-14.12s-5.38-13.88-15.38-13.88h-11.25v28ZM584.38,109.18c-.5-6.62-5.38-10.5-14.12-10.5s-13,3.75-13.12,8.88c-.12,5.62,5.38,8.38,13.5,10.12l7.88,1.88c17.38,3.88,27.5,12.5,27.62,27-.12,17.12-13.38,27.5-35.88,27.5s-37.12-10.25-37.5-31h20.5c.5,8.75,7,13.25,16.75,13.25,9,0,14.38-4,14.5-9.75-.12-5.25-4.75-8-14.75-10.25l-9.5-2.25c-15.62-3.62-25.12-11.38-25.12-25-.12-16.75,14.75-28,35.25-28s34.25,11.38,34.5,28.12h-20.5ZM702,127.56c0,29.88-18.75,46.5-43,46.5s-43-16.75-43-46.5,18.62-46.5,43-46.5,43,16.62,43,46.5ZM680.25,127.56c0-18-8-27.75-21.25-27.75s-21.25,9.75-21.25,27.75,8,27.75,21.25,27.75,21.25-9.75,21.25-27.75ZM714.63,172.81v-90.5h21.25v73.12h38v17.38h-59.25Z"/>
    <path class="cls-1" d="M285.56,218.65v-3.12h21.33v3.12h-8.87v25.16h-3.55v-25.16h-8.91ZM352.31,229.67c0,8.95-5.27,14.53-12.5,14.53s-12.5-5.59-12.5-14.53,5.23-14.53,12.5-14.53,12.5,5.59,12.5,14.53ZM348.91,229.67c0-7.3-3.98-11.25-9.1-11.25s-9.1,3.95-9.1,11.25,3.98,11.25,9.1,11.25,9.1-3.95,9.1-11.25ZM375.47,243.81v-28.28h9.61c6.64,0,9.65,3.95,9.65,8.98s-3.01,9.02-9.61,9.02h-6.13v10.27h-3.52ZM378.98,230.41h5.98c4.49,0,6.29-2.54,6.29-5.9s-1.8-5.86-6.33-5.86h-5.94v11.76ZM461.12,222.64c-.31-2.77-2.85-4.38-6.25-4.38-3.75,0-6.21,1.95-6.21,4.65,0,2.97,3.32,4.06,5.47,4.61l2.81.78c3.05.78,8.01,2.54,8.01,7.81,0,4.61-3.71,8.2-10.27,8.2-6.09,0-9.88-3.16-10.2-7.85h3.59c.31,3.16,3.24,4.65,6.6,4.65,3.91,0,6.84-1.99,6.84-5.08,0-2.73-2.62-3.79-5.59-4.65l-3.48-.94c-4.45-1.29-7.19-3.55-7.19-7.38,0-4.77,4.26-7.93,9.73-7.93s9.41,3.2,9.57,7.5h-3.44ZM511.89,229.67c0,8.95-5.27,14.53-12.5,14.53s-12.5-5.59-12.5-14.53,5.23-14.53,12.5-14.53,12.5,5.59,12.5,14.53ZM508.49,229.67c0-7.3-3.98-11.25-9.1-11.25s-9.1,3.95-9.1,11.25,3.98,11.25,9.1,11.25,9.1-3.95,9.1-11.25ZM535.05,243.81v-28.28h3.52v25.16h13.13v3.12h-16.64ZM592.89,215.53h3.52v18.71c0,5.82-4.34,10.08-11.02,10.08s-11.02-4.26-11.02-10.08v-18.71h3.52v18.44c0,4.1,2.85,7.07,7.5,7.07s7.5-2.97,7.5-7.07v-18.44ZM619.09,218.65v-3.12h21.33v3.12h-8.87v25.16h-3.55v-25.16h-8.91ZM666.63,215.53v28.28h-3.52v-28.28h3.52ZM714.78,229.67c0,8.95-5.27,14.53-12.5,14.53s-12.5-5.59-12.5-14.53,5.23-14.53,12.5-14.53,12.5,5.59,12.5,14.53ZM711.38,229.67c0-7.3-3.98-11.25-9.1-11.25s-9.1,3.95-9.1,11.25,3.98,11.25,9.1,11.25,9.1-3.95,9.1-11.25ZM760.4,215.53v28.28h-3.36l-15.31-22.03h-.27v22.03h-3.52v-28.28h3.4l15.31,22.07h.27v-22.07h3.48Z"/>
  </g>
</svg>